<?xml version="1.0" encoding="UTF-8"?>
<!DOCTYPE svg PUBLIC "-//W3C//DTD SVG 1.1//EN" "http://www.w3.org/Graphics/SVG/1.1/DTD/svg11.dtd">
<!-- Creator: CorelDRAW X8 -->
<svg xmlns="http://www.w3.org/2000/svg" xml:space="preserve" width="66.1458mm" height="66.1458mm" version="1.1" style="shape-rendering:geometricPrecision; text-rendering:geometricPrecision; image-rendering:optimizeQuality; fill-rule:evenodd; clip-rule:evenodd"
viewBox="0 0 6615 6615"
 xmlns:xlink="http://www.w3.org/1999/xlink">
 <defs>
  <style type="text/css">
   <![CDATA[
    .fil0 {fill:#FEFEFE}
   ]]>
  </style>
 </defs>
 <g id="Layer_x0020_1">
  <metadata id="CorelCorpID_0Corel-Layer"/>
  <g id="_2209656729472">
   <path class="fil0" d="M4417 1675c-282,53 -587,385 -554,504 91,334 371,-274 664,-256 349,22 266,453 268,789 3,362 -1,729 -1,1094 0,288 76,785 -136,908 -287,168 -536,-226 -659,-344l-1076 -1078c-132,-128 -289,-107 -256,78 16,92 170,224 242,291l1058 1058c157,155 399,428 770,247 277,-136 321,-349 320,-737 -1,-313 23,-1969 -16,-2137 -59,-255 -316,-475 -624,-417z"/>
   <path class="fil0" d="M2147 1667c-619,134 -443,894 -454,1680 -9,701 -156,1624 507,1670 174,13 311,-53 407,-134 34,-28 248,-243 264,-271 92,-162 -57,-256 -195,-159 -7,6 -728,903 -724,-295 1,-290 -43,-1955 49,-2101 235,-376 588,96 656,162 361,356 741,717 1076,1076 291,313 545,143 191,-191 -196,-185 -354,-359 -545,-548 -96,-95 -166,-170 -270,-261 -267,-233 -550,-717 -962,-628z"/>
  </g>
 </g>
</svg>
